<svg xmlns="http://www.w3.org/2000/svg" xmlns:xlink="http://www.w3.org/1999/xlink" width="500" zoomAndPan="magnify" viewBox="0 0 375 149.999998" height="200" preserveAspectRatio="xMidYMid meet" version="1.2"><defs><clipPath id="b582226712"><path d="M 0.265625 24.289062 L 158.988281 24.289062 L 158.988281 125.632812 L 0.265625 125.632812 Z M 0.265625 24.289062 "/></clipPath></defs><g id="14a547aa63"><path style=" stroke:none;fill-rule:evenodd;fill:#00abe4;fill-opacity:1;" d="M 70.882812 60.09375 C 70.929688 60.449219 71.21875 60.660156 71.382812 61.082031 C 71.664062 61.777344 71.902344 62.710938 72.292969 63.308594 C 73.472656 65.109375 66.847656 72.773438 66.8125 72.859375 C 67.96875 72.089844 69.941406 70.328125 71.417969 69.722656 C 72.957031 69.089844 73.402344 69.972656 73.34375 71.460938 C 73.300781 72.550781 75.742188 70.855469 74.128906 74.605469 C 73.523438 76.019531 75.269531 76.007812 74.851562 79.492188 C 74.59375 81.664062 77.335938 81.671875 74.851562 84.691406 C 74.175781 85.515625 75.46875 86.671875 73.234375 87.738281 C 73.183594 88.554688 70.710938 90.476562 72.246094 91.230469 C 72.648438 90.710938 74.632812 89.542969 74.792969 89.878906 C 75.003906 90.316406 73.183594 92.476562 71.585938 93.453125 C 69.316406 94.839844 72.855469 96.929688 66.085938 101.039062 C 64.8125 101.8125 64.554688 102.132812 63.941406 100.691406 C 63.539062 99.746094 59.65625 102.648438 59.503906 102.492188 C 57.839844 100.757812 60.585938 101.566406 60.148438 99.039062 C 59.644531 96.085938 62.128906 94.339844 62.109375 93.503906 C 62.082031 92.414062 61.855469 90.753906 63.476562 91.625 C 63.574219 91.675781 64.859375 95.011719 66.628906 91.632812 C 67.070312 90.789062 68.882812 91.234375 68.417969 89.335938 C 68.035156 87.78125 66.1875 87.753906 66.789062 84.347656 C 66.878906 83.847656 67.40625 82.464844 65.570312 82.992188 C 63.507812 83.589844 64.476562 86 61.738281 86.859375 C 57.984375 88.042969 58.46875 90.253906 55.929688 91.792969 C 55.539062 90.300781 56.726562 89.351562 57.476562 88.0625 C 57.570312 87.90625 58.796875 87.40625 59.390625 86.707031 C 60.898438 84.9375 60.859375 85.035156 62.910156 83.691406 C 63.164062 83.523438 63.71875 82.886719 63.953125 82.855469 C 63.878906 81.996094 66.457031 76.761719 67.316406 75.714844 C 68.421875 74.363281 69.84375 72.554688 67.632812 74.597656 C 67.152344 75.046875 66.71875 75.40625 66.453125 75.941406 C 66.105469 76.652344 65.730469 77.589844 62.851562 78.652344 C 61.351562 79.203125 60.28125 82.3125 57.570312 83.941406 C 56.609375 84.519531 55.867188 85.910156 53.980469 87.078125 C 52.730469 87.855469 48.949219 91.207031 48.78125 92.183594 C 49.15625 88.320312 52.5 87.0625 53.824219 84.929688 C 55.363281 82.453125 57.59375 79 60.019531 77.265625 C 66.289062 72.78125 59.582031 76.457031 61.757812 73.195312 C 62.816406 71.609375 67.664062 70.875 65.894531 69.871094 C 64.925781 69.324219 63.890625 70.03125 63.15625 70.601562 C 62.085938 71.433594 61.414062 70.914062 62.441406 69.875 C 63.597656 68.707031 66.4375 67.679688 67.808594 66.035156 C 69.238281 64.492188 69.640625 63.292969 69.054688 61.265625 C 68.800781 60.382812 68.742188 59.464844 69.445312 58.820312 C 70.445312 57.90625 70.789062 59.414062 70.882812 60.09375 "/><path style=" stroke:none;fill-rule:evenodd;fill:#00abe4;fill-opacity:1;" d="M 78.300781 84.894531 C 78.214844 83.410156 78.894531 81.753906 77.859375 79.136719 C 77.40625 77.992188 77.023438 77.234375 76.609375 76 C 76.460938 75.570312 76.148438 75.089844 76.0625 74.574219 C 75.8125 73.042969 76.023438 71.203125 76.765625 70.648438 C 76.945312 73.96875 82.878906 82.675781 82.832031 83.515625 C 84.335938 81.171875 80.804688 77.746094 83.207031 78.695312 C 83.257812 78.71875 84.601562 80.074219 84.984375 80.34375 C 85.53125 80.726562 86.667969 86.390625 86.53125 83.226562 C 86.460938 81.5625 89.273438 86.160156 89.328125 86.277344 C 89.847656 87.398438 90.679688 88.539062 91.417969 89.53125 C 91.417969 86.300781 88.476562 81.523438 89.488281 82.082031 C 89.777344 82.242188 91.289062 84.933594 92.183594 85.652344 C 93.859375 86.996094 93.878906 91.109375 98.308594 92.253906 C 101.167969 92.992188 99.148438 94.910156 102.972656 97.917969 C 105.734375 100.085938 106.867188 105.917969 112.148438 108.742188 C 117.96875 110.507812 114.917969 109.953125 118.210938 113.402344 C 119.628906 114.886719 121.84375 114.394531 123.503906 115.433594 C 124.375 115.976562 123.683594 115.308594 124.664062 116.230469 C 126.015625 117.507812 126.863281 117.046875 123.292969 116.808594 C 122.71875 116.773438 117.835938 114.980469 116.050781 115.042969 C 115.222656 115.070312 116.160156 116.253906 116.527344 116.839844 C 117.105469 117.757812 125.4375 118.925781 122.730469 120.359375 C 122.191406 120.640625 121.015625 120.796875 119.75 120.839844 C 117.367188 120.925781 116.78125 119.898438 115.546875 118.84375 C 114.117188 117.621094 112.136719 116.207031 110.710938 114.085938 C 108.941406 111.46875 107.441406 109.15625 105.496094 106.65625 C 104.671875 105.597656 103.722656 103.292969 102.648438 102.503906 C 98.085938 98 95.890625 99.109375 92.292969 96.636719 C 92.265625 96.617188 91.4375 96.035156 90.4375 95.574219 C 89.164062 94.984375 88.742188 94.5625 87.492188 94.382812 C 90.496094 94.046875 93.875 96.042969 95.105469 96.804688 C 92.976562 90.871094 89.523438 96.054688 86.503906 88.421875 C 85.875 86.832031 82.339844 87.253906 81.539062 83.996094 C 80.882812 86.238281 85.015625 90.726562 86.070312 95.9375 C 86.546875 98.292969 91.089844 101.902344 93.042969 103.859375 C 91.953125 101.910156 91.1875 100.496094 89.78125 98.585938 C 92.519531 100.335938 94.410156 100.382812 96.472656 102.339844 C 98.238281 104.019531 96.953125 104.128906 97.328125 105.753906 C 98.035156 108.796875 102.441406 115.085938 100.3125 110.367188 C 100.125 109.949219 99.34375 105.671875 100.746094 107.128906 C 101.1875 107.589844 103.890625 111.738281 104.003906 112.148438 L 103.898438 111.949219 C 106.507812 115.222656 106.929688 114.507812 103.949219 114.289062 C 104.273438 115.847656 113.964844 120.695312 109.101562 119.175781 C 107.769531 118.757812 112.804688 123.289062 112.101562 123.289062 C 110.554688 123.289062 104.808594 119.484375 103.871094 117.671875 C 103.089844 116.160156 99.765625 115.152344 98.960938 112 C 98.363281 109.679688 93.335938 109.449219 92.761719 106.691406 C 92.960938 109.578125 93.417969 108.867188 91.378906 106.527344 C 91.023438 106.117188 89.296875 104.121094 89.164062 103.652344 C 88.609375 103.554688 90.003906 108.882812 91.550781 110.617188 C 93.5625 112.875 88.433594 110.644531 91.617188 115.285156 C 91.695312 115.402344 94.246094 121.496094 92.554688 119.210938 C 91.214844 117.398438 89.605469 116.535156 88.828125 114.035156 C 88.523438 113.054688 88.105469 113.027344 87.589844 113.933594 C 86.65625 115.578125 85.347656 116.941406 85.6875 110.546875 C 85.800781 108.445312 86.554688 106.425781 86.574219 104.417969 C 86.589844 102.707031 86.222656 101.40625 85.90625 102.972656 C 84.941406 107.789062 80.519531 104.101562 79.984375 110.886719 C 79.925781 111.613281 79.566406 113.917969 78.363281 115.890625 C 77.410156 117.449219 75.734375 118.839844 74.648438 118.839844 C 71.074219 118.839844 72.5 119.582031 75.234375 116.875 C 77.132812 114.992188 73.671875 112.90625 78.335938 107.441406 C 73.007812 107.441406 74.675781 110.328125 71.039062 110.835938 C 68.597656 111.171875 66.6875 111.304688 65.207031 113.304688 C 64.636719 112.71875 65.277344 107.875 70.414062 107.875 C 73.484375 107.875 73.785156 106.230469 77.214844 105.371094 C 79.375 104.828125 79.175781 102.054688 78.855469 100.515625 C 78.570312 99.144531 76.539062 98.289062 75.460938 100.003906 C 73.40625 103.28125 70.515625 110.449219 72.839844 101.273438 C 73.789062 97.527344 78.832031 99.730469 78.949219 94.027344 C 79.011719 91.078125 77.023438 91.4375 77.5625 88.96875 C 77.648438 88.574219 77.765625 88.121094 77.910156 87.605469 C 79.464844 87.828125 83.425781 98.046875 81.113281 91.449219 C 80.632812 90.082031 80.109375 89.183594 79.574219 88.058594 C 79.132812 87.132812 78.359375 85.835938 78.300781 84.894531 "/><path style=" stroke:none;fill-rule:evenodd;fill:#00abe4;fill-opacity:1;" d="M 117.03125 75.457031 C 117.730469 76.785156 117.71875 78.488281 118.320312 79.957031 C 118.515625 80.429688 118.664062 80.964844 118.804688 81.460938 C 119.015625 82.203125 119.199219 82.867188 119.472656 83.132812 C 120.261719 83.882812 120.324219 86.011719 121.292969 87.601562 C 121.886719 88.578125 123.214844 89.523438 123.375 90.296875 C 123.476562 90.785156 123.351562 91.25 123.816406 93.25 C 123.96875 93.921875 125.765625 97.195312 124.910156 92.996094 C 124.695312 91.9375 126.136719 93.394531 126.636719 95.722656 C 126.640625 95.738281 128.605469 98.480469 128.84375 99.09375 C 129.175781 99.9375 129.914062 100.796875 130.648438 101.59375 C 131.800781 102.847656 132.949219 103.957031 132.527344 104.640625 C 132.203125 105.160156 132.195312 105.652344 132.421875 106.0625 C 133.671875 108.335938 143.207031 109.894531 131.832031 108.804688 C 130.523438 108.679688 129.441406 107.953125 129.253906 105.621094 C 129.21875 105.191406 129.15625 103.660156 128.984375 103.347656 C 128.617188 102.664062 128.089844 103.734375 128.78125 106.042969 C 129.398438 108.109375 126.09375 108.050781 126.09375 103.101562 C 126.09375 99.230469 125.175781 101.324219 122.296875 98.136719 C 120.425781 96.066406 119.558594 97.992188 119.800781 92.355469 C 119.871094 90.683594 118.449219 87.414062 117.121094 90.414062 C 116.777344 91.183594 116.253906 91.917969 115.265625 91.660156 C 114.753906 91.527344 114.523438 90.933594 115.074219 89.789062 C 115.261719 89.402344 115.484375 88.980469 115.710938 88.554688 C 116.609375 86.867188 115.4375 86.539062 115.214844 85.058594 C 115.015625 83.75 115.179688 82.441406 115.480469 81.214844 C 116.085938 78.738281 117.074219 76.71875 117.03125 75.457031 "/><path style=" stroke:none;fill-rule:evenodd;fill:#00abe4;fill-opacity:1;" d="M 95.460938 73.171875 C 96.027344 72.699219 96.40625 72.492188 96.671875 72.488281 C 97.097656 72.476562 97.460938 72.828125 97.871094 73.421875 C 98.0625 73.695312 98.378906 78.414062 98.601562 78.777344 C 98.828125 79.148438 98.957031 75.160156 99.242188 75.605469 C 99.699219 76.316406 99.5625 77.609375 100.605469 78.167969 C 101.203125 78.484375 101.71875 81.25 104.070312 82.777344 C 104.195312 82.859375 103.703125 85.738281 106.8125 87.109375 C 106.863281 87.132812 108.386719 89.683594 108.464844 89.871094 C 106.714844 89.492188 107.105469 89.472656 108.136719 92.277344 C 108.144531 92.300781 109.621094 95.8125 108.925781 95.03125 C 108.488281 94.542969 105.867188 93.328125 104.503906 90.828125 C 103.726562 89.398438 102.660156 89.566406 102.867188 87.148438 C 102.964844 86 99.546875 81.84375 98.761719 80.347656 C 98.664062 80.160156 99.140625 81.320312 99.351562 82.449219 C 99.605469 83.804688 99.601562 85.175781 99.46875 85.003906 C 98.773438 84.097656 98.496094 83.21875 97.980469 82.699219 C 97.570312 82.289062 96.855469 82.1875 96.738281 81.917969 C 95.96875 80.144531 96.644531 80.464844 96.335938 79.679688 C 96.0625 79.308594 95.597656 79.09375 95.078125 78.957031 C 94.410156 78.777344 96.410156 77.644531 96.265625 76.75 C 96.167969 76.160156 94.511719 76.507812 94.054688 75.691406 C 93.597656 74.875 94.863281 73.671875 95.460938 73.171875 "/><path style=" stroke:none;fill-rule:evenodd;fill:#00abe4;fill-opacity:1;" d="M 31.289062 100.769531 C 30.761719 101.507812 31.449219 101.996094 31.363281 102.53125 C 30.964844 105.007812 31.214844 104.039062 29.902344 105.839844 C 29.5 106.394531 28.769531 107.058594 27.289062 109.027344 C 26.839844 109.628906 25.578125 110.304688 25.066406 111 C 22.398438 114.625 20.234375 118.847656 22.914062 116.398438 C 26.484375 113.132812 26.578125 116.824219 27.207031 116.386719 C 27.421875 116.234375 27.308594 115.464844 27.242188 113.921875 C 27.214844 113.289062 27.578125 111.96875 28.34375 110.882812 C 28.75 110.308594 29.472656 110.058594 29.859375 109.445312 C 30.128906 109.023438 31.050781 107.238281 32.125 106.332031 C 32.679688 105.867188 33.769531 105.933594 34.242188 105.554688 C 35.332031 104.691406 35.347656 104.792969 35.378906 104.429688 C 35.441406 103.691406 34.011719 104.753906 33.886719 103.808594 C 33.867188 103.644531 33.496094 103.375 33.273438 102.910156 C 33.097656 102.527344 33.085938 101.964844 32.898438 101.554688 C 32.683594 101.097656 32.699219 100.589844 32.417969 100.390625 C 32.082031 100.148438 31.695312 100.191406 31.289062 100.769531 "/><path style=" stroke:none;fill-rule:evenodd;fill:#00abe4;fill-opacity:1;" d="M 52.015625 90.96875 C 51.261719 92.195312 49.871094 92.628906 49.929688 94.15625 C 49.941406 94.507812 49.847656 94.972656 49.5 95.632812 C 49.097656 96.410156 45.109375 100.890625 48.132812 99.242188 C 48.664062 98.953125 50.300781 96.640625 50.074219 96.992188 C 49.542969 97.84375 50.117188 100.929688 50.285156 100.722656 C 50.445312 100.515625 50.609375 98.074219 50.757812 96.253906 C 50.820312 95.488281 50.5625 95.0625 50.800781 93.566406 C 50.804688 93.53125 51.226562 91.78125 52.015625 90.96875 "/><path style=" stroke:none;fill-rule:evenodd;fill:#00abe4;fill-opacity:1;" d="M 71.390625 114.335938 C 71.390625 114.335938 60.03125 120.195312 64.984375 119.40625 C 65.398438 119.339844 70.433594 115.914062 71.304688 114.527344 C 71.363281 114.429688 71.433594 114.488281 71.609375 114.347656 L 71.390625 114.335938 "/><g clip-rule="nonzero" clip-path="url(#b582226712)"><path style=" stroke:none;fill-rule:evenodd;fill:#00abe4;fill-opacity:1;" d="M 158.367188 119.042969 C 158.542969 118.816406 158.757812 116.488281 158.753906 114.925781 C 158.746094 113.332031 158.519531 112.496094 158.53125 112.046875 C 158.5625 111.179688 158.570312 110.320312 158.792969 109.410156 C 159.070312 108.273438 158.976562 100.566406 158.976562 98.707031 C 158.867188 98.332031 157.199219 87.078125 157.199219 86.59375 C 157.199219 86.46875 157.027344 85.414062 156.792969 84.203125 C 156.261719 81.445312 155.386719 81.289062 154.710938 81.089844 C 154.191406 80.9375 154.148438 80.480469 152.238281 80.515625 C 148.726562 80.585938 143.851562 80.492188 143.117188 80.207031 C 141.84375 79.71875 133.136719 80.253906 131.707031 79.765625 C 131.464844 79.683594 126.183594 79.40625 125.054688 79.363281 C 128.082031 78.8125 129.59375 79 130.628906 78.710938 C 130.707031 78.691406 132.757812 78.691406 134.695312 78.523438 C 136.847656 78.335938 138.925781 77.96875 139.402344 77.949219 C 141.785156 77.851562 144.511719 77.792969 145.179688 77.507812 C 146.234375 77.054688 153.578125 78.070312 154.539062 77.535156 C 153.882812 75.414062 153.582031 76.363281 153.152344 73.96875 C 152.632812 71.03125 149.992188 69.152344 149.148438 65.40625 C 148.957031 64.558594 148.351562 63.941406 148.332031 63.570312 C 146.578125 62.632812 146.863281 60.273438 145.257812 58.691406 C 144.464844 57.914062 143.277344 56.175781 141.949219 54.246094 C 141.503906 53.929688 141.023438 53.597656 140.53125 53.273438 C 138.132812 51.695312 138.511719 51.800781 135.515625 51.683594 C 131.496094 51.53125 127.355469 51.859375 124.574219 51.703125 C 122.300781 51.578125 121.371094 51.394531 121.136719 51.179688 C 120.484375 50.578125 124.191406 49.347656 119.953125 49.394531 C 115.507812 49.441406 106.757812 49.558594 105.578125 49.558594 C 103.464844 49.558594 100.921875 49.503906 98.941406 49.015625 C 98.242188 48.839844 97.214844 48.777344 97.703125 48.476562 C 98.480469 47.992188 104.589844 48.371094 106.207031 47.78125 C 106.246094 47.765625 115.804688 47.480469 116.976562 47.179688 C 119.535156 46.527344 123.207031 47.558594 125.902344 47.09375 C 126.457031 46.996094 128.011719 46.738281 129.382812 46.34375 C 131.007812 45.875 131.03125 44.921875 130.875 44.101562 C 130.734375 43.347656 130.535156 42.734375 129.34375 42.058594 C 128.535156 41.59375 127.710938 41.140625 126.929688 40.714844 C 125.269531 39.796875 124.519531 38.769531 123.78125 38.222656 C 122.949219 37.609375 121.339844 36.691406 120.441406 36.105469 C 118.558594 34.875 113.488281 32.089844 111.628906 31.199219 C 109.871094 30.351562 107.488281 29.269531 106.085938 28.882812 C 104.621094 28.484375 102.410156 27.6875 100.136719 26.992188 C 97.070312 26.054688 93.84375 25.484375 92.136719 25.550781 C 91.722656 25.566406 87.839844 24.929688 86.261719 24.996094 C 82.621094 25.148438 79.253906 24.140625 75.996094 24.304688 C 72.945312 24.460938 70 25.792969 66.617188 25.984375 C 65.269531 26.058594 61.785156 27.175781 60.324219 27.324219 C 55.914062 28.996094 52.4375 27.988281 47.191406 32.722656 C 46.558594 33.292969 38.339844 36.371094 34.5 39.757812 C 32.039062 41.925781 26.632812 44.769531 24.800781 47.515625 C 23.390625 49.628906 20.03125 50.863281 17.578125 54.773438 C 17.515625 54.867188 16.90625 55.511719 16.101562 56.375 C 15.699219 56.804688 15.316406 57.289062 14.980469 57.808594 C 14.417969 58.667969 14.539062 59.328125 14.613281 60.09375 C 14.777344 61.855469 16.507812 62.140625 17.828125 62.113281 C 19.089844 62.082031 21.273438 62.019531 22.847656 62.242188 C 25.144531 62.570312 22.210938 63.691406 25.039062 63.976562 C 26.515625 64.125 28.023438 64.289062 29.480469 64.289062 C 32.730469 64.289062 36.390625 64.511719 39.617188 64.511719 C 40.085938 64.511719 40.984375 64.757812 41.59375 64.757812 C 41.285156 64.742188 40.914062 64.996094 40.015625 65.164062 C 38.515625 65.441406 32.765625 65.898438 31.222656 65.898438 C 30.292969 65.898438 25.167969 65.980469 24.523438 66.269531 C 23.683594 66.648438 14.816406 66.566406 12.28125 66.84375 C 11.289062 66.953125 9.835938 67.589844 9.238281 68.453125 C 8.15625 70.007812 6.757812 72.605469 6.683594 73.585938 C 6.617188 74.429688 4.378906 79.128906 4.015625 80.527344 C 3.097656 82.503906 0.691406 94.003906 0.691406 95.988281 C 0.292969 97.972656 0.488281 99.339844 0.488281 101.445312 C 0.488281 102.042969 0.257812 102.792969 0.265625 103.410156 C 0.289062 105.328125 0.585938 107.113281 0.636719 108.214844 C 0.667969 108.820312 1.082031 109.089844 1.082031 110.816406 C 1.082031 112.316406 1.589844 113.457031 1.523438 115.347656 C 1.515625 115.644531 1.78125 116.910156 1.96875 117.132812 C 2.347656 117.34375 2.023438 119.226562 2.023438 119.761719 C 2.023438 121.027344 2.824219 123.285156 3.53125 125.117188 C 5.261719 123.53125 8.605469 120.40625 9.789062 119.527344 C 12.320312 117.648438 13.335938 115.875 15.199219 114.550781 C 19.835938 111.257812 22.070312 108.363281 24.066406 105.757812 C 25.863281 103.414062 27.59375 101.742188 30.054688 99.945312 C 31.425781 98.945312 32.171875 95.257812 34.386719 98.082031 C 35.722656 99.78125 36.050781 101.546875 37.445312 100.785156 C 38.171875 100.390625 39.183594 99.308594 40.777344 97.179688 C 42.140625 95.359375 42.875 93.921875 45.085938 90.675781 C 45.683594 89.796875 46.121094 88.179688 47.03125 87.113281 C 50.441406 83.113281 54.816406 75.425781 58.851562 69.839844 C 61.253906 66.519531 63.605469 64.277344 65.996094 60.757812 C 67.332031 58.792969 68.675781 56.808594 68.675781 56.804688 C 70.453125 54.300781 71.191406 55.089844 72.410156 56.367188 C 73.839844 57.871094 73.664062 57.933594 74.007812 58.441406 C 74.195312 58.714844 74.773438 59.023438 75.277344 59.949219 C 76.851562 62.824219 78.449219 62.972656 80.359375 66.402344 C 81.519531 68.492188 82.960938 71.121094 83.933594 72.234375 C 84.082031 72.40625 84.488281 73.125 84.523438 73.300781 C 85.5 74.609375 87.5625 76.96875 87.679688 76.867188 C 89.402344 75.417969 90.714844 73.886719 92.476562 72.609375 C 93.015625 72.21875 93.191406 72.058594 94.226562 71.449219 C 95.683594 70.589844 95.851562 69.183594 97.007812 70.460938 C 97.316406 70.804688 97.914062 70.875 98.398438 71.378906 C 98.878906 71.882812 99.25 72.828125 100.324219 73.328125 C 102.746094 74.472656 99.75 75.9375 104.996094 78.582031 C 106.621094 79.402344 108.605469 86.015625 109.40625 83.832031 C 109.914062 82.441406 111.058594 80.765625 112.171875 79.785156 C 112.300781 79.671875 114.324219 76.433594 114.496094 76.007812 C 115.222656 74.230469 115.640625 71.488281 117.484375 73.886719 C 118.898438 75.722656 118.492188 77.714844 120.023438 80.179688 C 121.308594 82.253906 123.3125 85.277344 123.429688 85.433594 C 125.292969 87.929688 125.980469 90.207031 130.921875 95.316406 C 132.734375 97.195312 133.898438 99.46875 135.390625 101.421875 C 137.835938 104.628906 140.878906 108.46875 143.492188 112.125 C 146.785156 116.738281 154.179688 122.929688 156.496094 125.632812 L 156.816406 125.632812 C 157.191406 124.464844 157.539062 123.203125 157.855469 121.828125 C 157.945312 121.421875 158.039062 121.003906 158.125 120.578125 C 158.257812 119.933594 158.367188 120.40625 158.367188 119.042969 "/></g><g style="fill:#00abe4;fill-opacity:1;"><g transform="translate(172.842384, 93.365454)"><path style="stroke:none" d="M 22.671875 -50.9375 C 29.242188 -50.9375 34.039062 -49.523438 37.0625 -46.703125 C 40.082031 -43.878906 41.59375 -39.992188 41.59375 -35.046875 C 41.59375 -32.816406 41.253906 -30.6875 40.578125 -28.65625 C 39.910156 -26.625 38.816406 -24.816406 37.296875 -23.234375 C 35.773438 -21.648438 33.75 -20.398438 31.21875 -19.484375 C 28.6875 -18.566406 25.5625 -18.109375 21.84375 -18.109375 L 17.203125 -18.109375 L 17.203125 0 L 6.40625 0 L 6.40625 -50.9375 Z M 22.125 -42.078125 L 17.203125 -42.078125 L 17.203125 -26.96875 L 20.765625 -26.96875 C 22.785156 -26.96875 24.535156 -27.234375 26.015625 -27.765625 C 27.503906 -28.296875 28.65625 -29.128906 29.46875 -30.265625 C 30.28125 -31.410156 30.6875 -32.875 30.6875 -34.65625 C 30.6875 -37.164062 29.988281 -39.03125 28.59375 -40.25 C 27.207031 -41.46875 25.050781 -42.078125 22.125 -42.078125 Z M 22.125 -42.078125 "/></g></g><g style="fill:#00abe4;fill-opacity:1;"><g transform="translate(219.067421, 93.365454)"><path style="stroke:none" d="M 35.734375 0 L 6.40625 0 L 6.40625 -50.9375 L 35.734375 -50.9375 L 35.734375 -42.078125 L 17.203125 -42.078125 L 17.203125 -30.90625 L 34.453125 -30.90625 L 34.453125 -22.046875 L 17.203125 -22.046875 L 17.203125 -8.921875 L 35.734375 -8.921875 Z M 35.734375 0 "/></g></g><g style="fill:#00abe4;fill-opacity:1;"><g transform="translate(260.450381, 93.365454)"><path style="stroke:none" d="M 37.59375 0 L 33.890625 -12.125 L 15.328125 -12.125 L 11.640625 0 L 0 0 L 17.96875 -51.140625 L 31.171875 -51.140625 L 49.21875 0 Z M 31.3125 -21.1875 L 27.625 -33.03125 C 27.394531 -33.8125 27.085938 -34.820312 26.703125 -36.0625 C 26.316406 -37.3125 25.929688 -38.578125 25.546875 -39.859375 C 25.171875 -41.148438 24.863281 -42.273438 24.625 -43.234375 C 24.394531 -42.273438 24.078125 -41.09375 23.671875 -39.6875 C 23.265625 -38.289062 22.875 -36.960938 22.5 -35.703125 C 22.132812 -34.453125 21.867188 -33.5625 21.703125 -33.03125 L 18.046875 -21.1875 Z M 31.3125 -21.1875 "/></g></g><g style="fill:#00abe4;fill-opacity:1;"><g transform="translate(311.099489, 93.365454)"><path style="stroke:none" d="M 47.375 0 L 35.109375 0 L 21.765625 -21.453125 L 17.203125 -18.1875 L 17.203125 0 L 6.40625 0 L 6.40625 -50.9375 L 17.203125 -50.9375 L 17.203125 -27.625 C 17.921875 -28.625 18.628906 -29.625 19.328125 -30.625 C 20.023438 -31.625 20.734375 -32.617188 21.453125 -33.609375 L 35.25 -50.9375 L 47.234375 -50.9375 L 29.46875 -28.390625 Z M 47.375 0 "/></g></g><g style="fill:#00abe4;fill-opacity:1;"><g transform="translate(180.297263, 116.219227)"><path style="stroke:none" d="M 8.625 -10.890625 L 5.703125 0 L 3.484375 0 L 0.75 -12.765625 L 2.4375 -12.765625 L 4.640625 -1.75 L 7.609375 -12.765625 L 9.65625 -12.765625 L 12.609375 -1.75 L 14.828125 -12.765625 L 16.515625 -12.765625 L 13.765625 0 L 11.53125 0 Z M 8.625 -10.890625 "/></g></g><g style="fill:#00abe4;fill-opacity:1;"><g transform="translate(204.941775, 116.219227)"><path style="stroke:none" d="M 11.921875 -5.6875 L 2.890625 -5.6875 C 2.921875 -4.289062 3.242188 -3.1875 3.859375 -2.375 C 4.484375 -1.5625 5.425781 -1.15625 6.6875 -1.15625 C 7.539062 -1.15625 8.234375 -1.300781 8.765625 -1.59375 C 9.296875 -1.894531 9.6875 -2.273438 9.9375 -2.734375 C 10.1875 -3.191406 10.3125 -3.644531 10.3125 -4.09375 L 11.921875 -4.09375 L 11.921875 -4 C 11.921875 -3.34375 11.734375 -2.679688 11.359375 -2.015625 C 10.992188 -1.359375 10.425781 -0.8125 9.65625 -0.375 C 8.882812 0.0507812 7.894531 0.265625 6.6875 0.265625 C 5.40625 0.265625 4.359375 -0.015625 3.546875 -0.578125 C 2.734375 -1.148438 2.132812 -1.921875 1.75 -2.890625 C 1.375 -3.867188 1.1875 -4.941406 1.1875 -6.109375 L 1.1875 -6.640625 C 1.1875 -7.828125 1.375 -8.898438 1.75 -9.859375 C 2.125 -10.828125 2.710938 -11.597656 3.515625 -12.171875 C 4.316406 -12.742188 5.335938 -13.03125 6.578125 -13.03125 C 7.828125 -13.03125 8.84375 -12.742188 9.625 -12.171875 C 10.414062 -11.597656 10.992188 -10.828125 11.359375 -9.859375 C 11.734375 -8.898438 11.921875 -7.828125 11.921875 -6.640625 Z M 6.546875 -11.609375 C 5.347656 -11.609375 4.445312 -11.195312 3.84375 -10.375 C 3.238281 -9.5625 2.921875 -8.460938 2.890625 -7.078125 L 10.203125 -7.078125 C 10.160156 -8.460938 9.84375 -9.5625 9.25 -10.375 C 8.664062 -11.195312 7.765625 -11.609375 6.546875 -11.609375 Z M 6.546875 -11.609375 "/></g></g><g style="fill:#00abe4;fill-opacity:1;"><g transform="translate(225.423782, 116.219227)"><path style="stroke:none" d="M 3.28125 -19.265625 L 3.28125 -11.296875 C 3.613281 -11.773438 4.078125 -12.179688 4.671875 -12.515625 C 5.265625 -12.859375 6.003906 -13.03125 6.890625 -13.03125 C 8.054688 -13.03125 8.992188 -12.742188 9.703125 -12.171875 C 10.421875 -11.597656 10.945312 -10.832031 11.28125 -9.875 C 11.613281 -8.925781 11.78125 -7.859375 11.78125 -6.671875 L 11.78125 -6.09375 C 11.78125 -4.914062 11.613281 -3.84375 11.28125 -2.875 C 10.945312 -1.914062 10.421875 -1.148438 9.703125 -0.578125 C 8.992188 -0.015625 8.054688 0.265625 6.890625 0.265625 C 5.910156 0.265625 5.113281 0.0664062 4.5 -0.328125 C 3.894531 -0.722656 3.421875 -1.191406 3.078125 -1.734375 L 2.84375 0 L 1.4375 0 L 1.59375 -3.609375 L 1.59375 -19.265625 Z M 3.28125 -9.53125 L 3.28125 -3.21875 C 3.457031 -2.945312 3.679688 -2.65625 3.953125 -2.34375 C 4.234375 -2.03125 4.582031 -1.769531 5 -1.5625 C 5.425781 -1.351562 5.925781 -1.25 6.5 -1.25 C 7.707031 -1.25 8.597656 -1.6875 9.171875 -2.5625 C 9.753906 -3.4375 10.046875 -4.613281 10.046875 -6.09375 L 10.046875 -6.671875 C 10.046875 -8.148438 9.753906 -9.328125 9.171875 -10.203125 C 8.597656 -11.078125 7.707031 -11.515625 6.5 -11.515625 C 5.925781 -11.515625 5.425781 -11.410156 5 -11.203125 C 4.582031 -10.992188 4.234375 -10.734375 3.953125 -10.421875 C 3.679688 -10.117188 3.457031 -9.820312 3.28125 -9.53125 Z M 3.28125 -9.53125 "/></g></g><g style="fill:#00abe4;fill-opacity:1;"><g transform="translate(245.737361, 116.219227)"><path style="stroke:none" d=""/></g></g><g style="fill:#00abe4;fill-opacity:1;"><g transform="translate(257.942468, 116.219227)"><path style="stroke:none" d="M 6.109375 -13.03125 C 7.015625 -13.03125 7.753906 -12.859375 8.328125 -12.515625 C 8.910156 -12.179688 9.378906 -11.773438 9.734375 -11.296875 L 9.734375 -19.265625 L 11.40625 -19.265625 L 11.40625 -3.609375 L 11.5625 0 L 10.140625 0 L 9.890625 -1.703125 C 9.578125 -1.160156 9.109375 -0.695312 8.484375 -0.3125 C 7.867188 0.0703125 7.078125 0.265625 6.109375 0.265625 C 4.953125 0.265625 4.015625 -0.015625 3.296875 -0.578125 C 2.578125 -1.148438 2.050781 -1.914062 1.71875 -2.875 C 1.394531 -3.84375 1.234375 -4.914062 1.234375 -6.09375 L 1.234375 -6.671875 C 1.234375 -7.859375 1.394531 -8.925781 1.71875 -9.875 C 2.050781 -10.832031 2.578125 -11.597656 3.296875 -12.171875 C 4.015625 -12.742188 4.953125 -13.03125 6.109375 -13.03125 Z M 6.484375 -1.25 C 7.054688 -1.25 7.550781 -1.351562 7.96875 -1.5625 C 8.382812 -1.769531 8.738281 -2.03125 9.03125 -2.34375 C 9.320312 -2.65625 9.554688 -2.945312 9.734375 -3.21875 L 9.734375 -9.53125 C 9.554688 -9.820312 9.320312 -10.117188 9.03125 -10.421875 C 8.738281 -10.734375 8.382812 -10.992188 7.96875 -11.203125 C 7.550781 -11.410156 7.054688 -11.515625 6.484375 -11.515625 C 5.273438 -11.515625 4.378906 -11.078125 3.796875 -10.203125 C 3.222656 -9.328125 2.9375 -8.148438 2.9375 -6.671875 L 2.9375 -6.09375 C 2.9375 -4.613281 3.222656 -3.4375 3.796875 -2.5625 C 4.378906 -1.6875 5.273438 -1.25 6.484375 -1.25 Z M 6.484375 -1.25 "/></g></g><g style="fill:#00abe4;fill-opacity:1;"><g transform="translate(278.328221, 116.219227)"><path style="stroke:none" d="M 11.921875 -5.6875 L 2.890625 -5.6875 C 2.921875 -4.289062 3.242188 -3.1875 3.859375 -2.375 C 4.484375 -1.5625 5.425781 -1.15625 6.6875 -1.15625 C 7.539062 -1.15625 8.234375 -1.300781 8.765625 -1.59375 C 9.296875 -1.894531 9.6875 -2.273438 9.9375 -2.734375 C 10.1875 -3.191406 10.3125 -3.644531 10.3125 -4.09375 L 11.921875 -4.09375 L 11.921875 -4 C 11.921875 -3.34375 11.734375 -2.679688 11.359375 -2.015625 C 10.992188 -1.359375 10.425781 -0.8125 9.65625 -0.375 C 8.882812 0.0507812 7.894531 0.265625 6.6875 0.265625 C 5.40625 0.265625 4.359375 -0.015625 3.546875 -0.578125 C 2.734375 -1.148438 2.132812 -1.921875 1.75 -2.890625 C 1.375 -3.867188 1.1875 -4.941406 1.1875 -6.109375 L 1.1875 -6.640625 C 1.1875 -7.828125 1.375 -8.898438 1.75 -9.859375 C 2.125 -10.828125 2.710938 -11.597656 3.515625 -12.171875 C 4.316406 -12.742188 5.335938 -13.03125 6.578125 -13.03125 C 7.828125 -13.03125 8.84375 -12.742188 9.625 -12.171875 C 10.414062 -11.597656 10.992188 -10.828125 11.359375 -9.859375 C 11.734375 -8.898438 11.921875 -7.828125 11.921875 -6.640625 Z M 6.546875 -11.609375 C 5.347656 -11.609375 4.445312 -11.195312 3.84375 -10.375 C 3.238281 -9.5625 2.921875 -8.460938 2.890625 -7.078125 L 10.203125 -7.078125 C 10.160156 -8.460938 9.84375 -9.5625 9.25 -10.375 C 8.664062 -11.195312 7.765625 -11.609375 6.546875 -11.609375 Z M 6.546875 -11.609375 "/></g></g><g style="fill:#00abe4;fill-opacity:1;"><g transform="translate(298.810228, 116.219227)"><path style="stroke:none" d="M 6.28125 -1.15625 C 7.320312 -1.15625 8.113281 -1.367188 8.65625 -1.796875 C 9.195312 -2.222656 9.46875 -2.785156 9.46875 -3.484375 C 9.46875 -4.359375 9.191406 -4.941406 8.640625 -5.234375 C 8.097656 -5.535156 7.207031 -5.738281 5.96875 -5.84375 C 4.832031 -5.945312 3.9375 -6.144531 3.28125 -6.4375 C 2.632812 -6.738281 2.179688 -7.125 1.921875 -7.59375 C 1.671875 -8.070312 1.546875 -8.625 1.546875 -9.25 L 1.546875 -9.390625 C 1.546875 -10.492188 1.960938 -11.375 2.796875 -12.03125 C 3.628906 -12.695312 4.789062 -13.03125 6.28125 -13.03125 C 7.457031 -13.03125 8.390625 -12.84375 9.078125 -12.46875 C 9.765625 -12.101562 10.265625 -11.597656 10.578125 -10.953125 C 10.890625 -10.316406 11.046875 -9.578125 11.046875 -8.734375 L 11.046875 -8.640625 L 9.390625 -8.640625 C 9.390625 -9.554688 9.164062 -10.28125 8.71875 -10.8125 C 8.28125 -11.34375 7.46875 -11.609375 6.28125 -11.609375 C 5.320312 -11.609375 4.570312 -11.414062 4.03125 -11.03125 C 3.488281 -10.644531 3.21875 -10.097656 3.21875 -9.390625 C 3.21875 -8.953125 3.3125 -8.578125 3.5 -8.265625 C 3.6875 -7.953125 4.023438 -7.703125 4.515625 -7.515625 C 5.003906 -7.335938 5.707031 -7.207031 6.625 -7.125 C 8.226562 -7 9.390625 -6.675781 10.109375 -6.15625 C 10.835938 -5.632812 11.203125 -4.785156 11.203125 -3.609375 L 11.203125 -3.484375 C 11.203125 -2.378906 10.773438 -1.476562 9.921875 -0.78125 C 9.066406 -0.0820312 7.851562 0.265625 6.28125 0.265625 C 5.082031 0.265625 4.117188 0.0625 3.390625 -0.34375 C 2.671875 -0.757812 2.15625 -1.28125 1.84375 -1.90625 C 1.53125 -2.53125 1.375 -3.160156 1.375 -3.796875 L 1.375 -3.90625 L 3.0625 -3.90625 C 3.0625 -3.4375 3.148438 -2.992188 3.328125 -2.578125 C 3.515625 -2.160156 3.84375 -1.816406 4.3125 -1.546875 C 4.789062 -1.285156 5.445312 -1.15625 6.28125 -1.15625 Z M 6.28125 -1.15625 "/></g></g><g style="fill:#00abe4;fill-opacity:1;"><g transform="translate(318.762886, 116.219227)"><path style="stroke:none" d="M 1.75 0 L 1.75 -12.765625 L 3.4375 -12.765625 L 3.4375 0 Z M 3.6875 -17.9375 L 3.6875 -15.765625 L 1.515625 -15.765625 L 1.515625 -17.9375 Z M 3.6875 -17.9375 "/></g></g><g style="fill:#00abe4;fill-opacity:1;"><g transform="translate(331.352962, 116.219227)"><path style="stroke:none" d="M 9.671875 0.03125 L 9.671875 -2.328125 C 9.328125 -1.847656 8.863281 -1.445312 8.28125 -1.125 C 7.707031 -0.8125 6.96875 -0.65625 6.0625 -0.65625 C 4.90625 -0.65625 3.96875 -0.921875 3.25 -1.453125 C 2.53125 -1.992188 2.003906 -2.710938 1.671875 -3.609375 C 1.347656 -4.503906 1.1875 -5.492188 1.1875 -6.578125 L 1.1875 -7.109375 C 1.1875 -8.179688 1.347656 -9.160156 1.671875 -10.046875 C 2.003906 -10.941406 2.53125 -11.660156 3.25 -12.203125 C 3.96875 -12.753906 4.90625 -13.03125 6.0625 -13.03125 C 7.039062 -13.03125 7.832031 -12.835938 8.4375 -12.453125 C 9.050781 -12.066406 9.53125 -11.597656 9.875 -11.046875 L 10.109375 -12.765625 L 11.515625 -12.765625 L 11.359375 -9.15625 L 11.359375 0.125 C 11.359375 1.070312 11.191406 1.921875 10.859375 2.671875 C 10.535156 3.421875 10.007812 4.007812 9.28125 4.4375 C 8.550781 4.863281 7.578125 5.078125 6.359375 5.078125 C 5.140625 5.078125 4.164062 4.859375 3.4375 4.421875 C 2.71875 3.992188 2.203125 3.414062 1.890625 2.6875 C 1.578125 1.96875 1.421875 1.175781 1.421875 0.3125 L 1.421875 0 L 3.03125 0 C 3.03125 1.207031 3.28125 2.109375 3.78125 2.703125 C 4.289062 3.304688 5.140625 3.609375 6.328125 3.609375 C 7.566406 3.609375 8.429688 3.300781 8.921875 2.6875 C 9.421875 2.082031 9.671875 1.195312 9.671875 0.03125 Z M 9.671875 -9.53125 C 9.503906 -9.820312 9.28125 -10.117188 9 -10.421875 C 8.71875 -10.734375 8.363281 -10.992188 7.9375 -11.203125 C 7.519531 -11.410156 7.015625 -11.515625 6.421875 -11.515625 C 5.234375 -11.515625 4.347656 -11.109375 3.765625 -10.296875 C 3.179688 -9.484375 2.890625 -8.421875 2.890625 -7.109375 L 2.890625 -6.578125 C 2.890625 -5.242188 3.179688 -4.175781 3.765625 -3.375 C 4.347656 -2.570312 5.234375 -2.171875 6.421875 -2.171875 C 7.015625 -2.171875 7.519531 -2.273438 7.9375 -2.484375 C 8.363281 -2.691406 8.71875 -2.945312 9 -3.25 C 9.28125 -3.550781 9.503906 -3.84375 9.671875 -4.125 Z M 9.671875 -9.53125 "/></g></g><g style="fill:#00abe4;fill-opacity:1;"><g transform="translate(351.666541, 116.219227)"><path style="stroke:none" d="M 11.25 0 L 9.5625 0 L 9.5625 -8.6875 C 9.5625 -9.65625 9.3125 -10.367188 8.8125 -10.828125 C 8.3125 -11.285156 7.640625 -11.515625 6.796875 -11.515625 C 6.128906 -11.515625 5.566406 -11.410156 5.109375 -11.203125 C 4.660156 -10.992188 4.285156 -10.734375 3.984375 -10.421875 C 3.691406 -10.117188 3.457031 -9.820312 3.28125 -9.53125 L 3.28125 0 L 1.59375 0 L 1.59375 -9.15625 L 1.4375 -12.765625 L 2.84375 -12.765625 L 3.078125 -10.953125 C 3.453125 -11.515625 3.988281 -12 4.6875 -12.40625 C 5.382812 -12.820312 6.28125 -13.03125 7.375 -13.03125 C 8.632812 -13.03125 9.59375 -12.644531 10.25 -11.875 C 10.914062 -11.101562 11.25 -10.125 11.25 -8.9375 Z M 11.25 0 "/></g></g></g></svg>