<svg xmlns="http://www.w3.org/2000/svg" xmlns:xlink="http://www.w3.org/1999/xlink" width="500" zoomAndPan="magnify" viewBox="0 0 375 374.999991" height="500" preserveAspectRatio="xMidYMid meet" version="1.2"><defs><clipPath id="d35c56493f"><path d="M 33.886719 124.375 L 155.722656 124.375 L 155.722656 202.167969 L 33.886719 202.167969 Z M 33.886719 124.375 "/></clipPath></defs><g id="5440519cf3"><rect x="0" width="375" y="0" height="374.999991" style="fill:#ffffff;fill-opacity:1;stroke:none;"/><rect x="0" width="375" y="0" height="374.999991" style="fill:#ffffff;fill-opacity:1;stroke:none;"/><path style=" stroke:none;fill-rule:evenodd;fill:#00abe4;fill-opacity:1;" d="M 88.09375 151.863281 C 88.128906 152.132812 88.347656 152.296875 88.476562 152.617188 C 88.691406 153.152344 88.875 153.871094 89.175781 154.328125 C 90.082031 155.710938 84.996094 161.59375 84.96875 161.660156 C 85.855469 161.070312 87.371094 159.714844 88.503906 159.253906 C 89.683594 158.765625 90.027344 159.445312 89.980469 160.585938 C 89.949219 161.421875 91.824219 160.121094 90.585938 163 C 90.121094 164.085938 91.457031 164.078125 91.140625 166.75 C 90.941406 168.417969 93.046875 168.425781 91.140625 170.742188 C 90.621094 171.375 91.613281 172.261719 89.898438 173.082031 C 89.859375 173.707031 87.960938 175.183594 89.136719 175.761719 C 89.449219 175.363281 90.96875 174.464844 91.09375 174.722656 C 91.257812 175.058594 89.859375 176.71875 88.632812 177.464844 C 86.890625 178.53125 89.609375 180.132812 84.410156 183.292969 C 83.433594 183.882812 83.234375 184.128906 82.765625 183.023438 C 82.457031 182.296875 79.472656 184.523438 79.359375 184.40625 C 78.082031 183.074219 80.1875 183.695312 79.855469 181.753906 C 79.46875 179.488281 81.375 178.148438 81.359375 177.503906 C 81.339844 176.667969 81.164062 175.394531 82.40625 176.0625 C 82.484375 176.101562 83.46875 178.660156 84.828125 176.070312 C 85.167969 175.421875 86.558594 175.761719 86.199219 174.304688 C 85.90625 173.113281 84.488281 173.09375 84.953125 170.476562 C 85.019531 170.09375 85.425781 169.03125 84.015625 169.4375 C 82.433594 169.894531 83.175781 171.746094 81.074219 172.40625 C 78.191406 173.3125 78.5625 175.011719 76.617188 176.191406 C 76.316406 175.046875 77.226562 174.320312 77.804688 173.328125 C 77.875 173.207031 78.816406 172.824219 79.273438 172.289062 C 80.429688 170.929688 80.398438 171.007812 81.972656 169.976562 C 82.167969 169.847656 82.59375 169.355469 82.773438 169.332031 C 82.71875 168.671875 84.695312 164.65625 85.355469 163.851562 C 86.203125 162.816406 87.292969 161.425781 85.601562 162.992188 C 85.226562 163.339844 84.898438 163.617188 84.695312 164.023438 C 84.425781 164.570312 84.136719 165.289062 81.929688 166.105469 C 80.777344 166.53125 79.957031 168.914062 77.875 170.164062 C 77.136719 170.609375 76.566406 171.679688 75.121094 172.574219 C 74.160156 173.171875 71.257812 175.742188 71.128906 176.492188 C 71.414062 173.527344 73.984375 172.558594 75 170.925781 C 76.179688 169.023438 77.894531 166.371094 79.753906 165.039062 C 84.566406 161.601562 79.417969 164.421875 81.089844 161.917969 C 81.902344 160.699219 85.625 160.136719 84.265625 159.367188 C 83.523438 158.945312 82.726562 159.488281 82.164062 159.925781 C 81.34375 160.5625 80.824219 160.167969 81.613281 159.367188 C 82.5 158.472656 84.683594 157.683594 85.734375 156.421875 C 86.832031 155.234375 87.140625 154.316406 86.6875 152.761719 C 86.492188 152.082031 86.449219 151.375 86.992188 150.882812 C 87.757812 150.179688 88.019531 151.339844 88.09375 151.863281 "/><path style=" stroke:none;fill-rule:evenodd;fill:#00abe4;fill-opacity:1;" d="M 93.789062 170.898438 C 93.722656 169.757812 94.242188 168.484375 93.449219 166.476562 C 93.101562 165.601562 92.808594 165.019531 92.488281 164.070312 C 92.375 163.738281 92.132812 163.371094 92.070312 162.976562 C 91.878906 161.800781 92.039062 160.390625 92.605469 159.960938 C 92.746094 162.511719 97.300781 169.195312 97.265625 169.839844 C 98.417969 168.039062 95.707031 165.410156 97.550781 166.140625 C 97.59375 166.15625 98.625 167.199219 98.917969 167.402344 C 99.335938 167.699219 100.207031 172.046875 100.105469 169.617188 C 100.050781 168.339844 102.210938 171.871094 102.25 171.960938 C 102.648438 172.820312 103.289062 173.695312 103.855469 174.457031 C 103.855469 171.976562 101.597656 168.308594 102.375 168.738281 C 102.59375 168.859375 103.753906 170.929688 104.445312 171.480469 C 105.726562 172.511719 105.746094 175.667969 109.144531 176.546875 C 111.339844 177.113281 109.789062 178.585938 112.726562 180.894531 C 114.84375 182.558594 115.714844 187.035156 119.765625 189.203125 C 124.238281 190.558594 121.894531 190.132812 124.421875 192.777344 C 125.507812 193.917969 127.210938 193.542969 128.484375 194.339844 C 129.152344 194.757812 128.621094 194.246094 129.375 194.953125 C 130.414062 195.929688 131.0625 195.578125 128.324219 195.394531 C 127.882812 195.367188 124.132812 193.988281 122.765625 194.039062 C 122.128906 194.0625 122.847656 194.96875 123.128906 195.417969 C 123.570312 196.121094 129.96875 197.019531 127.890625 198.117188 C 127.476562 198.335938 126.574219 198.457031 125.605469 198.488281 C 123.773438 198.554688 123.324219 197.765625 122.378906 196.957031 C 121.277344 196.015625 119.757812 194.933594 118.664062 193.304688 C 117.308594 191.292969 116.15625 189.519531 114.660156 187.601562 C 114.027344 186.789062 113.300781 185.019531 112.476562 184.414062 C 108.972656 180.957031 107.289062 181.808594 104.527344 179.910156 C 104.507812 179.894531 103.871094 179.449219 103.105469 179.09375 C 102.125 178.644531 101.800781 178.320312 100.84375 178.179688 C 103.148438 177.921875 105.738281 179.457031 106.6875 180.039062 C 105.050781 175.484375 102.398438 179.464844 100.082031 173.605469 C 99.601562 172.382812 96.890625 172.707031 96.273438 170.207031 C 95.769531 171.929688 98.941406 175.375 99.75 179.375 C 100.117188 181.183594 103.601562 183.953125 105.105469 185.453125 C 104.265625 183.957031 103.679688 182.875 102.597656 181.40625 C 104.699219 182.75 106.152344 182.785156 107.734375 184.289062 C 109.09375 185.578125 108.105469 185.664062 108.394531 186.910156 C 108.933594 189.242188 112.320312 194.070312 110.683594 190.453125 C 110.539062 190.128906 109.9375 186.84375 111.015625 187.964844 C 111.355469 188.316406 113.429688 191.503906 113.515625 191.820312 L 113.4375 191.664062 C 115.441406 194.175781 115.761719 193.628906 113.476562 193.460938 C 113.722656 194.65625 121.160156 198.378906 117.429688 197.210938 C 116.40625 196.890625 120.273438 200.367188 119.734375 200.367188 C 118.542969 200.367188 114.132812 197.449219 113.414062 196.058594 C 112.816406 194.898438 110.265625 194.121094 109.644531 191.703125 C 109.1875 189.921875 105.328125 189.746094 104.886719 187.628906 C 105.039062 189.84375 105.390625 189.296875 103.828125 187.503906 C 103.550781 187.1875 102.226562 185.65625 102.125 185.296875 C 101.699219 185.21875 102.769531 189.3125 103.957031 190.640625 C 105.503906 192.375 101.566406 190.664062 104.007812 194.226562 C 104.070312 194.3125 106.027344 198.992188 104.726562 197.238281 C 103.699219 195.847656 102.464844 195.183594 101.867188 193.265625 C 101.636719 192.515625 101.3125 192.492188 100.917969 193.1875 C 100.199219 194.449219 99.195312 195.496094 99.457031 190.589844 C 99.542969 188.972656 100.125 187.425781 100.136719 185.882812 C 100.148438 184.570312 99.867188 183.574219 99.625 184.773438 C 98.886719 188.472656 95.488281 185.640625 95.078125 190.847656 C 95.035156 191.40625 94.757812 193.175781 93.835938 194.691406 C 93.105469 195.886719 91.820312 196.953125 90.980469 196.953125 C 88.238281 196.953125 89.332031 197.523438 91.433594 195.445312 C 92.890625 194 90.234375 192.398438 93.816406 188.203125 C 89.722656 188.203125 91.007812 190.421875 88.210938 190.808594 C 86.339844 191.066406 84.875 191.167969 83.734375 192.703125 C 83.300781 192.253906 83.792969 188.539062 87.730469 188.539062 C 90.089844 188.539062 90.320312 187.273438 92.953125 186.613281 C 94.609375 186.199219 94.457031 184.066406 94.210938 182.886719 C 93.992188 181.835938 92.433594 181.179688 91.609375 182.496094 C 90.027344 185.007812 87.8125 190.511719 89.59375 183.46875 C 90.324219 180.59375 94.195312 182.285156 94.285156 177.90625 C 94.332031 175.644531 92.804688 175.917969 93.21875 174.027344 C 93.285156 173.71875 93.375 173.371094 93.488281 172.980469 C 94.679688 173.148438 97.722656 180.996094 95.945312 175.929688 C 95.578125 174.878906 95.175781 174.191406 94.761719 173.324219 C 94.425781 172.617188 93.832031 171.621094 93.789062 170.898438 "/><path style=" stroke:none;fill-rule:evenodd;fill:#00abe4;fill-opacity:1;" d="M 123.515625 163.652344 C 124.054688 164.671875 124.042969 165.980469 124.503906 167.105469 C 124.65625 167.472656 124.769531 167.878906 124.878906 168.261719 C 125.039062 168.832031 125.179688 169.339844 125.390625 169.542969 C 125.996094 170.121094 126.042969 171.753906 126.785156 172.976562 C 127.242188 173.726562 128.261719 174.453125 128.386719 175.042969 C 128.464844 175.417969 128.367188 175.777344 128.722656 177.3125 C 128.84375 177.824219 130.21875 180.339844 129.5625 177.117188 C 129.398438 176.304688 130.507812 177.421875 130.890625 179.207031 C 130.890625 179.21875 132.398438 181.328125 132.585938 181.796875 C 132.835938 182.441406 133.40625 183.101562 133.96875 183.714844 C 134.851562 184.679688 135.734375 185.53125 135.410156 186.054688 C 135.164062 186.453125 135.15625 186.832031 135.328125 187.144531 C 136.289062 188.890625 143.605469 190.085938 134.878906 189.25 C 133.875 189.152344 133.042969 188.597656 132.898438 186.808594 C 132.871094 186.476562 132.824219 185.300781 132.691406 185.0625 C 132.410156 184.539062 132.007812 185.359375 132.535156 187.128906 C 133.007812 188.714844 130.472656 188.671875 130.472656 184.875 C 130.472656 181.898438 129.765625 183.507812 127.558594 181.0625 C 126.121094 179.472656 125.457031 180.953125 125.640625 176.625 C 125.695312 175.339844 124.605469 172.832031 123.582031 175.136719 C 123.320312 175.722656 122.921875 176.289062 122.160156 176.089844 C 121.769531 175.988281 121.589844 175.53125 122.011719 174.65625 C 122.15625 174.359375 122.332031 174.03125 122.503906 173.707031 C 123.191406 172.410156 122.292969 172.160156 122.121094 171.023438 C 121.96875 170.019531 122.09375 169.015625 122.324219 168.070312 C 122.789062 166.171875 123.546875 164.621094 123.515625 163.652344 "/><path style=" stroke:none;fill-rule:evenodd;fill:#00abe4;fill-opacity:1;" d="M 106.957031 161.898438 C 107.394531 161.535156 107.683594 161.375 107.886719 161.375 C 108.214844 161.367188 108.496094 161.636719 108.808594 162.089844 C 108.953125 162.300781 109.199219 165.925781 109.371094 166.203125 C 109.542969 166.488281 109.644531 163.425781 109.859375 163.765625 C 110.210938 164.3125 110.109375 165.304688 110.90625 165.734375 C 111.367188 165.976562 111.761719 168.101562 113.566406 169.273438 C 113.664062 169.335938 113.285156 171.546875 115.671875 172.597656 C 115.710938 172.617188 116.882812 174.574219 116.941406 174.714844 C 115.597656 174.429688 115.898438 174.410156 116.691406 176.5625 C 116.695312 176.582031 117.828125 179.277344 117.296875 178.679688 C 116.960938 178.300781 114.945312 177.371094 113.902344 175.453125 C 113.300781 174.355469 112.484375 174.484375 112.644531 172.625 C 112.71875 171.746094 110.09375 168.558594 109.492188 167.40625 C 109.417969 167.261719 109.785156 168.152344 109.945312 169.023438 C 110.140625 170.0625 110.136719 171.113281 110.035156 170.984375 C 109.503906 170.289062 109.289062 169.609375 108.890625 169.210938 C 108.578125 168.898438 108.03125 168.820312 107.9375 168.613281 C 107.347656 167.25 107.867188 167.496094 107.632812 166.894531 C 107.421875 166.609375 107.0625 166.445312 106.667969 166.339844 C 106.152344 166.199219 107.6875 165.332031 107.574219 164.648438 C 107.503906 164.191406 106.230469 164.460938 105.878906 163.832031 C 105.53125 163.207031 106.5 162.285156 106.957031 161.898438 "/><path style=" stroke:none;fill-rule:evenodd;fill:#00abe4;fill-opacity:1;" d="M 57.703125 183.082031 C 57.296875 183.648438 57.824219 184.023438 57.757812 184.4375 C 57.453125 186.335938 57.644531 185.59375 56.636719 186.976562 C 56.328125 187.402344 55.769531 187.910156 54.632812 189.421875 C 54.285156 189.882812 53.316406 190.402344 52.925781 190.933594 C 50.875 193.71875 49.214844 196.960938 51.269531 195.078125 C 54.011719 192.574219 54.085938 195.40625 54.570312 195.070312 C 54.734375 194.953125 54.644531 194.363281 54.59375 193.175781 C 54.574219 192.691406 54.851562 191.679688 55.441406 190.84375 C 55.75 190.40625 56.308594 190.214844 56.601562 189.742188 C 56.8125 189.417969 57.519531 188.050781 58.34375 187.355469 C 58.769531 186.996094 59.605469 187.046875 59.96875 186.753906 C 60.804688 186.09375 60.816406 186.171875 60.839844 185.890625 C 60.886719 185.324219 59.789062 186.140625 59.695312 185.414062 C 59.683594 185.289062 59.394531 185.082031 59.226562 184.726562 C 59.089844 184.429688 59.082031 184 58.9375 183.683594 C 58.773438 183.335938 58.785156 182.945312 58.570312 182.792969 C 58.308594 182.605469 58.015625 182.640625 57.703125 183.082031 "/><path style=" stroke:none;fill-rule:evenodd;fill:#00abe4;fill-opacity:1;" d="M 73.609375 175.558594 C 73.03125 176.5 71.964844 176.835938 72.007812 178.007812 C 72.019531 178.277344 71.945312 178.632812 71.679688 179.140625 C 71.371094 179.738281 68.308594 183.175781 70.628906 181.910156 C 71.039062 181.691406 72.292969 179.914062 72.121094 180.183594 C 71.710938 180.835938 72.15625 183.207031 72.285156 183.046875 C 72.40625 182.890625 72.53125 181.015625 72.644531 179.617188 C 72.691406 179.03125 72.496094 178.703125 72.675781 177.554688 C 72.679688 177.527344 73.003906 176.183594 73.609375 175.558594 "/><path style=" stroke:none;fill-rule:evenodd;fill:#00abe4;fill-opacity:1;" d="M 88.484375 193.496094 C 88.484375 193.496094 79.765625 197.996094 83.566406 197.390625 C 83.882812 197.335938 87.746094 194.710938 88.417969 193.640625 C 88.460938 193.566406 88.515625 193.613281 88.652344 193.503906 L 88.484375 193.496094 "/><g clip-rule="nonzero" clip-path="url(#d35c56493f)"><path style=" stroke:none;fill-rule:evenodd;fill:#00abe4;fill-opacity:1;" d="M 155.242188 197.109375 C 155.378906 196.9375 155.546875 195.148438 155.542969 193.949219 C 155.535156 192.726562 155.359375 192.082031 155.371094 191.738281 C 155.394531 191.074219 155.402344 190.414062 155.574219 189.714844 C 155.785156 188.84375 155.710938 182.925781 155.710938 181.5 C 155.628906 181.210938 154.351562 172.574219 154.351562 172.203125 C 154.351562 172.105469 154.214844 171.296875 154.035156 170.367188 C 153.628906 168.25 152.957031 168.128906 152.441406 167.976562 C 152.042969 167.863281 152.007812 167.507812 150.542969 167.539062 C 147.84375 167.589844 144.101562 167.519531 143.539062 167.300781 C 142.5625 166.921875 135.878906 167.335938 134.78125 166.960938 C 134.597656 166.898438 130.539062 166.683594 129.675781 166.652344 C 131.996094 166.226562 133.160156 166.375 133.953125 166.152344 C 134.015625 166.136719 135.585938 166.136719 137.078125 166.003906 C 138.726562 165.863281 140.320312 165.582031 140.6875 165.566406 C 142.519531 165.492188 144.609375 165.449219 145.121094 165.226562 C 145.933594 164.878906 151.566406 165.660156 152.308594 165.246094 C 151.800781 163.621094 151.570312 164.351562 151.242188 162.511719 C 150.84375 160.257812 148.816406 158.8125 148.167969 155.9375 C 148.023438 155.285156 147.558594 154.8125 147.542969 154.527344 C 146.195312 153.808594 146.417969 152 145.183594 150.785156 C 144.574219 150.1875 143.664062 148.855469 142.640625 147.375 C 142.300781 147.128906 141.933594 146.875 141.554688 146.625 C 139.714844 145.414062 140.003906 145.492188 137.707031 145.40625 C 134.621094 145.289062 131.441406 145.542969 129.304688 145.421875 C 127.5625 145.324219 126.847656 145.183594 126.667969 145.015625 C 126.167969 144.558594 129.011719 143.613281 125.757812 143.648438 C 122.347656 143.683594 115.628906 143.773438 114.722656 143.773438 C 113.101562 143.773438 111.148438 143.730469 109.632812 143.355469 C 109.09375 143.222656 108.304688 143.171875 108.679688 142.941406 C 109.277344 142.574219 113.964844 142.859375 115.207031 142.410156 C 115.238281 142.398438 122.574219 142.179688 123.472656 141.949219 C 125.4375 141.449219 128.257812 142.238281 130.324219 141.882812 C 130.753906 141.808594 131.945312 141.609375 132.996094 141.308594 C 134.246094 140.945312 134.261719 140.214844 134.144531 139.585938 C 134.035156 139.007812 133.882812 138.535156 132.96875 138.015625 C 132.347656 137.660156 131.714844 137.3125 131.113281 136.984375 C 129.839844 136.28125 129.265625 135.492188 128.699219 135.074219 C 128.058594 134.601562 126.824219 133.898438 126.136719 133.445312 C 124.6875 132.503906 120.796875 130.367188 119.367188 129.679688 C 118.019531 129.03125 116.191406 128.199219 115.113281 127.90625 C 113.992188 127.597656 112.292969 126.984375 110.546875 126.453125 C 108.195312 125.730469 105.714844 125.292969 104.410156 125.347656 C 104.089844 125.359375 101.109375 124.867188 99.898438 124.917969 C 97.101562 125.039062 94.519531 124.261719 92.015625 124.390625 C 89.675781 124.507812 87.414062 125.53125 84.820312 125.675781 C 83.785156 125.738281 81.109375 126.59375 79.988281 126.707031 C 76.601562 127.988281 73.933594 127.214844 69.90625 130.851562 C 69.421875 131.289062 63.113281 133.648438 60.164062 136.25 C 58.277344 137.917969 54.125 140.097656 52.722656 142.207031 C 51.640625 143.828125 49.058594 144.773438 47.175781 147.777344 C 47.128906 147.851562 46.660156 148.34375 46.042969 149.007812 C 45.734375 149.335938 45.441406 149.707031 45.183594 150.105469 C 44.753906 150.765625 44.84375 151.273438 44.898438 151.863281 C 45.027344 153.210938 46.355469 153.433594 47.367188 153.410156 C 48.339844 153.386719 50.011719 153.335938 51.222656 153.511719 C 52.984375 153.761719 50.734375 154.621094 52.902344 154.839844 C 54.035156 154.957031 55.195312 155.082031 56.3125 155.082031 C 58.808594 155.082031 61.617188 155.25 64.09375 155.25 C 64.453125 155.25 65.144531 155.441406 65.609375 155.441406 C 65.375 155.429688 65.089844 155.625 64.398438 155.75 C 63.246094 155.964844 58.835938 156.316406 57.652344 156.316406 C 56.9375 156.316406 53.003906 156.378906 52.507812 156.601562 C 51.863281 156.890625 45.058594 156.828125 43.109375 157.042969 C 42.347656 157.125 41.234375 157.617188 40.777344 158.277344 C 39.945312 159.472656 38.871094 161.464844 38.8125 162.21875 C 38.765625 162.863281 37.042969 166.472656 36.769531 167.542969 C 36.0625 169.0625 34.214844 177.890625 34.214844 179.414062 C 33.910156 180.933594 34.058594 181.984375 34.058594 183.601562 C 34.058594 184.0625 33.882812 184.636719 33.886719 185.109375 C 33.90625 186.582031 34.132812 187.953125 34.171875 188.796875 C 34.195312 189.261719 34.515625 189.46875 34.515625 190.792969 C 34.515625 191.945312 34.902344 192.820312 34.855469 194.273438 C 34.847656 194.5 35.050781 195.472656 35.195312 195.644531 C 35.484375 195.804688 35.238281 197.25 35.238281 197.660156 C 35.238281 198.632812 35.851562 200.367188 36.394531 201.769531 C 37.722656 200.554688 40.289062 198.15625 41.199219 197.480469 C 43.140625 196.039062 43.921875 194.679688 45.351562 193.660156 C 48.910156 191.132812 50.625 188.910156 52.15625 186.914062 C 53.535156 185.113281 54.867188 183.828125 56.753906 182.449219 C 57.808594 181.683594 58.378906 178.851562 60.078125 181.019531 C 61.105469 182.324219 61.355469 183.679688 62.425781 183.09375 C 62.984375 182.792969 63.761719 181.960938 64.984375 180.328125 C 66.03125 178.929688 66.59375 177.828125 68.289062 175.332031 C 68.75 174.660156 69.085938 173.421875 69.785156 172.601562 C 72.402344 169.53125 75.761719 163.628906 78.855469 159.34375 C 80.703125 156.792969 82.507812 155.074219 84.34375 152.371094 C 85.367188 150.863281 86.398438 149.339844 86.398438 149.335938 C 87.761719 147.414062 88.328125 148.019531 89.265625 149 C 90.363281 150.152344 90.230469 150.203125 90.492188 150.59375 C 90.632812 150.800781 91.078125 151.039062 91.46875 151.75 C 92.675781 153.957031 93.902344 154.070312 95.367188 156.703125 C 96.257812 158.308594 97.367188 160.324219 98.109375 161.179688 C 98.226562 161.3125 98.539062 161.863281 98.5625 162 C 99.3125 163.003906 100.894531 164.8125 100.988281 164.734375 C 102.308594 163.625 103.316406 162.449219 104.667969 161.464844 C 105.082031 161.167969 105.214844 161.042969 106.011719 160.574219 C 107.128906 159.917969 107.261719 158.835938 108.144531 159.820312 C 108.382812 160.082031 108.84375 160.136719 109.214844 160.523438 C 109.582031 160.910156 109.867188 161.632812 110.691406 162.019531 C 112.550781 162.894531 110.253906 164.019531 114.28125 166.054688 C 115.523438 166.679688 117.046875 171.757812 117.664062 170.082031 C 118.050781 169.015625 118.933594 167.726562 119.785156 166.976562 C 119.882812 166.890625 121.4375 164.402344 121.570312 164.078125 C 122.128906 162.710938 122.449219 160.605469 123.863281 162.449219 C 124.949219 163.859375 124.636719 165.386719 125.8125 167.28125 C 126.800781 168.871094 128.339844 171.191406 128.425781 171.3125 C 129.859375 173.226562 130.386719 174.972656 134.179688 178.898438 C 135.570312 180.339844 136.464844 182.085938 137.609375 183.585938 C 139.488281 186.042969 141.824219 188.992188 143.828125 191.800781 C 146.355469 195.339844 152.03125 200.09375 153.808594 202.167969 L 154.054688 202.167969 C 154.34375 201.273438 154.609375 200.304688 154.851562 199.246094 C 154.921875 198.9375 154.992188 198.613281 155.058594 198.289062 C 155.160156 197.792969 155.242188 198.15625 155.242188 197.109375 "/></g><g style="fill:#00abe4;fill-opacity:1;"><g transform="translate(166.356278, 177.399708)"><path style="stroke:none" d="M 17.40625 -39.09375 C 22.445312 -39.09375 26.125 -38.007812 28.4375 -35.84375 C 30.757812 -33.675781 31.921875 -30.695312 31.921875 -26.90625 C 31.921875 -25.1875 31.660156 -23.546875 31.140625 -21.984375 C 30.628906 -20.429688 29.789062 -19.046875 28.625 -17.828125 C 27.457031 -16.617188 25.898438 -15.660156 23.953125 -14.953125 C 22.015625 -14.253906 19.617188 -13.90625 16.765625 -13.90625 L 13.203125 -13.90625 L 13.203125 0 L 4.921875 0 L 4.921875 -39.09375 Z M 16.984375 -32.296875 L 13.203125 -32.296875 L 13.203125 -20.703125 L 15.9375 -20.703125 C 17.488281 -20.703125 18.832031 -20.90625 19.96875 -21.3125 C 21.113281 -21.71875 22 -22.359375 22.625 -23.234375 C 23.25 -24.109375 23.5625 -25.234375 23.5625 -26.609375 C 23.5625 -28.535156 23.023438 -29.960938 21.953125 -30.890625 C 20.878906 -31.828125 19.222656 -32.296875 16.984375 -32.296875 Z M 16.984375 -32.296875 "/></g></g><g style="fill:#00abe4;fill-opacity:1;"><g transform="translate(201.838167, 177.399708)"><path style="stroke:none" d="M 27.4375 0 L 4.921875 0 L 4.921875 -39.09375 L 27.4375 -39.09375 L 27.4375 -32.296875 L 13.203125 -32.296875 L 13.203125 -23.71875 L 26.453125 -23.71875 L 26.453125 -16.921875 L 13.203125 -16.921875 L 13.203125 -6.84375 L 27.4375 -6.84375 Z M 27.4375 0 "/></g></g><g style="fill:#00abe4;fill-opacity:1;"><g transform="translate(233.603325, 177.399708)"><path style="stroke:none" d="M 28.859375 0 L 26.015625 -9.3125 L 11.765625 -9.3125 L 8.9375 0 L 0 0 L 13.796875 -39.25 L 23.9375 -39.25 L 37.78125 0 Z M 24.046875 -16.265625 L 21.203125 -25.34375 C 21.023438 -25.957031 20.789062 -26.738281 20.5 -27.6875 C 20.207031 -28.644531 19.910156 -29.617188 19.609375 -30.609375 C 19.316406 -31.597656 19.082031 -32.457031 18.90625 -33.1875 C 18.726562 -32.457031 18.484375 -31.550781 18.171875 -30.46875 C 17.859375 -29.394531 17.554688 -28.375 17.265625 -27.40625 C 16.984375 -26.445312 16.78125 -25.757812 16.65625 -25.34375 L 13.859375 -16.265625 Z M 24.046875 -16.265625 "/></g></g><g style="fill:#00abe4;fill-opacity:1;"><g transform="translate(272.481088, 177.399708)"><path style="stroke:none" d="M 36.375 0 L 26.953125 0 L 16.71875 -16.46875 L 13.203125 -13.953125 L 13.203125 0 L 4.921875 0 L 4.921875 -39.09375 L 13.203125 -39.09375 L 13.203125 -21.203125 C 13.753906 -21.972656 14.296875 -22.738281 14.828125 -23.5 C 15.367188 -24.269531 15.914062 -25.039062 16.46875 -25.8125 L 27.0625 -39.09375 L 36.265625 -39.09375 L 22.625 -21.796875 Z M 36.375 0 "/></g></g><g style="fill:#00abe4;fill-opacity:1;"><g transform="translate(172.078571, 194.942037)"><path style="stroke:none" d="M 6.625 -8.359375 L 4.375 0 L 2.6875 0 L 0.578125 -9.796875 L 1.859375 -9.796875 L 3.5625 -1.34375 L 5.84375 -9.796875 L 7.40625 -9.796875 L 9.6875 -1.34375 L 11.390625 -9.796875 L 12.6875 -9.796875 L 10.578125 0 L 8.859375 0 Z M 6.625 -8.359375 "/></g></g><g style="fill:#00abe4;fill-opacity:1;"><g transform="translate(190.995459, 194.942037)"><path style="stroke:none" d="M 9.15625 -4.359375 L 2.21875 -4.359375 C 2.238281 -3.285156 2.484375 -2.4375 2.953125 -1.8125 C 3.429688 -1.195312 4.160156 -0.890625 5.140625 -0.890625 C 5.796875 -0.890625 6.328125 -1.003906 6.734375 -1.234375 C 7.140625 -1.460938 7.4375 -1.75 7.625 -2.09375 C 7.8125 -2.445312 7.90625 -2.796875 7.90625 -3.140625 L 9.15625 -3.140625 L 9.15625 -3.0625 C 9.15625 -2.5625 9.007812 -2.054688 8.71875 -1.546875 C 8.4375 -1.046875 8 -0.628906 7.40625 -0.296875 C 6.820312 0.0351562 6.066406 0.203125 5.140625 0.203125 C 4.148438 0.203125 3.34375 -0.015625 2.71875 -0.453125 C 2.101562 -0.890625 1.644531 -1.476562 1.34375 -2.21875 C 1.050781 -2.96875 0.90625 -3.789062 0.90625 -4.6875 L 0.90625 -5.109375 C 0.90625 -6.015625 1.050781 -6.835938 1.34375 -7.578125 C 1.632812 -8.316406 2.085938 -8.90625 2.703125 -9.34375 C 3.316406 -9.78125 4.097656 -10 5.046875 -10 C 6.003906 -10 6.785156 -9.78125 7.390625 -9.34375 C 7.992188 -8.90625 8.4375 -8.316406 8.71875 -7.578125 C 9.007812 -6.835938 9.15625 -6.015625 9.15625 -5.109375 Z M 5.03125 -8.90625 C 4.101562 -8.90625 3.40625 -8.59375 2.9375 -7.96875 C 2.476562 -7.34375 2.238281 -6.5 2.21875 -5.4375 L 7.84375 -5.4375 C 7.800781 -6.5 7.554688 -7.34375 7.109375 -7.96875 C 6.660156 -8.59375 5.96875 -8.90625 5.03125 -8.90625 Z M 5.03125 -8.90625 "/></g></g><g style="fill:#00abe4;fill-opacity:1;"><g transform="translate(206.717249, 194.942037)"><path style="stroke:none" d="M 2.515625 -14.78125 L 2.515625 -8.671875 C 2.773438 -9.035156 3.128906 -9.347656 3.578125 -9.609375 C 4.035156 -9.867188 4.601562 -10 5.28125 -10 C 6.1875 -10 6.910156 -9.78125 7.453125 -9.34375 C 8.003906 -8.90625 8.40625 -8.316406 8.65625 -7.578125 C 8.90625 -6.847656 9.03125 -6.03125 9.03125 -5.125 L 9.03125 -4.671875 C 9.03125 -3.773438 8.90625 -2.957031 8.65625 -2.21875 C 8.40625 -1.476562 8.003906 -0.890625 7.453125 -0.453125 C 6.910156 -0.015625 6.1875 0.203125 5.28125 0.203125 C 4.53125 0.203125 3.921875 0.0507812 3.453125 -0.25 C 2.984375 -0.550781 2.617188 -0.910156 2.359375 -1.328125 L 2.1875 0 L 1.109375 0 L 1.21875 -2.765625 L 1.21875 -14.78125 Z M 2.515625 -7.3125 L 2.515625 -2.484375 C 2.648438 -2.265625 2.820312 -2.035156 3.03125 -1.796875 C 3.25 -1.554688 3.519531 -1.359375 3.84375 -1.203125 C 4.164062 -1.046875 4.546875 -0.96875 4.984375 -0.96875 C 5.910156 -0.96875 6.59375 -1.300781 7.03125 -1.96875 C 7.476562 -2.632812 7.703125 -3.535156 7.703125 -4.671875 L 7.703125 -5.125 C 7.703125 -6.257812 7.476562 -7.160156 7.03125 -7.828125 C 6.59375 -8.492188 5.910156 -8.828125 4.984375 -8.828125 C 4.546875 -8.828125 4.164062 -8.75 3.84375 -8.59375 C 3.519531 -8.4375 3.25 -8.238281 3.03125 -8 C 2.820312 -7.769531 2.648438 -7.539062 2.515625 -7.3125 Z M 2.515625 -7.3125 "/></g></g><g style="fill:#00abe4;fill-opacity:1;"><g transform="translate(222.309754, 194.942037)"><path style="stroke:none" d=""/></g></g><g style="fill:#00abe4;fill-opacity:1;"><g transform="translate(231.678276, 194.942037)"><path style="stroke:none" d="M 4.6875 -10 C 5.382812 -10 5.953125 -9.867188 6.390625 -9.609375 C 6.835938 -9.347656 7.195312 -9.035156 7.46875 -8.671875 L 7.46875 -14.78125 L 8.765625 -14.78125 L 8.765625 -2.765625 L 8.875 0 L 7.78125 0 L 7.59375 -1.3125 C 7.351562 -0.894531 6.992188 -0.535156 6.515625 -0.234375 C 6.035156 0.0546875 5.425781 0.203125 4.6875 0.203125 C 3.800781 0.203125 3.082031 -0.015625 2.53125 -0.453125 C 1.976562 -0.890625 1.570312 -1.476562 1.3125 -2.21875 C 1.0625 -2.957031 0.9375 -3.773438 0.9375 -4.671875 L 0.9375 -5.125 C 0.9375 -6.03125 1.0625 -6.847656 1.3125 -7.578125 C 1.570312 -8.316406 1.976562 -8.90625 2.53125 -9.34375 C 3.082031 -9.78125 3.800781 -10 4.6875 -10 Z M 4.96875 -0.96875 C 5.414062 -0.96875 5.796875 -1.046875 6.109375 -1.203125 C 6.429688 -1.359375 6.703125 -1.554688 6.921875 -1.796875 C 7.148438 -2.035156 7.332031 -2.265625 7.46875 -2.484375 L 7.46875 -7.3125 C 7.332031 -7.539062 7.148438 -7.769531 6.921875 -8 C 6.703125 -8.238281 6.429688 -8.4375 6.109375 -8.59375 C 5.796875 -8.75 5.414062 -8.828125 4.96875 -8.828125 C 4.050781 -8.828125 3.367188 -8.492188 2.921875 -7.828125 C 2.472656 -7.160156 2.25 -6.257812 2.25 -5.125 L 2.25 -4.671875 C 2.25 -3.535156 2.472656 -2.632812 2.921875 -1.96875 C 3.367188 -1.300781 4.050781 -0.96875 4.96875 -0.96875 Z M 4.96875 -0.96875 "/></g></g><g style="fill:#00abe4;fill-opacity:1;"><g transform="translate(247.326182, 194.942037)"><path style="stroke:none" d="M 9.15625 -4.359375 L 2.21875 -4.359375 C 2.238281 -3.285156 2.484375 -2.4375 2.953125 -1.8125 C 3.429688 -1.195312 4.160156 -0.890625 5.140625 -0.890625 C 5.796875 -0.890625 6.328125 -1.003906 6.734375 -1.234375 C 7.140625 -1.460938 7.4375 -1.75 7.625 -2.09375 C 7.8125 -2.445312 7.90625 -2.796875 7.90625 -3.140625 L 9.15625 -3.140625 L 9.15625 -3.0625 C 9.15625 -2.5625 9.007812 -2.054688 8.71875 -1.546875 C 8.4375 -1.046875 8 -0.628906 7.40625 -0.296875 C 6.820312 0.0351562 6.066406 0.203125 5.140625 0.203125 C 4.148438 0.203125 3.34375 -0.015625 2.71875 -0.453125 C 2.101562 -0.890625 1.644531 -1.476562 1.34375 -2.21875 C 1.050781 -2.96875 0.90625 -3.789062 0.90625 -4.6875 L 0.90625 -5.109375 C 0.90625 -6.015625 1.050781 -6.835938 1.34375 -7.578125 C 1.632812 -8.316406 2.085938 -8.90625 2.703125 -9.34375 C 3.316406 -9.78125 4.097656 -10 5.046875 -10 C 6.003906 -10 6.785156 -9.78125 7.390625 -9.34375 C 7.992188 -8.90625 8.4375 -8.316406 8.71875 -7.578125 C 9.007812 -6.835938 9.15625 -6.015625 9.15625 -5.109375 Z M 5.03125 -8.90625 C 4.101562 -8.90625 3.40625 -8.59375 2.9375 -7.96875 C 2.476562 -7.34375 2.238281 -6.5 2.21875 -5.4375 L 7.84375 -5.4375 C 7.800781 -6.5 7.554688 -7.34375 7.109375 -7.96875 C 6.660156 -8.59375 5.96875 -8.90625 5.03125 -8.90625 Z M 5.03125 -8.90625 "/></g></g><g style="fill:#00abe4;fill-opacity:1;"><g transform="translate(263.047972, 194.942037)"><path style="stroke:none" d="M 4.828125 -0.890625 C 5.628906 -0.890625 6.234375 -1.050781 6.640625 -1.375 C 7.054688 -1.695312 7.265625 -2.132812 7.265625 -2.6875 C 7.265625 -3.34375 7.050781 -3.785156 6.625 -4.015625 C 6.207031 -4.242188 5.523438 -4.398438 4.578125 -4.484375 C 3.703125 -4.566406 3.015625 -4.71875 2.515625 -4.9375 C 2.023438 -5.164062 1.679688 -5.460938 1.484375 -5.828125 C 1.285156 -6.191406 1.1875 -6.613281 1.1875 -7.09375 L 1.1875 -7.203125 C 1.1875 -8.054688 1.503906 -8.734375 2.140625 -9.234375 C 2.785156 -9.742188 3.679688 -10 4.828125 -10 C 5.722656 -10 6.4375 -9.859375 6.96875 -9.578125 C 7.5 -9.296875 7.882812 -8.90625 8.125 -8.40625 C 8.363281 -7.914062 8.484375 -7.347656 8.484375 -6.703125 L 8.484375 -6.640625 L 7.203125 -6.640625 C 7.203125 -7.335938 7.03125 -7.890625 6.6875 -8.296875 C 6.351562 -8.703125 5.734375 -8.90625 4.828125 -8.90625 C 4.085938 -8.90625 3.507812 -8.753906 3.09375 -8.453125 C 2.6875 -8.160156 2.484375 -7.742188 2.484375 -7.203125 C 2.484375 -6.867188 2.550781 -6.582031 2.6875 -6.34375 C 2.832031 -6.101562 3.09375 -5.910156 3.46875 -5.765625 C 3.84375 -5.628906 4.378906 -5.53125 5.078125 -5.46875 C 6.316406 -5.375 7.210938 -5.125 7.765625 -4.71875 C 8.316406 -4.320312 8.59375 -3.671875 8.59375 -2.765625 L 8.59375 -2.6875 C 8.59375 -1.832031 8.265625 -1.132812 7.609375 -0.59375 C 6.960938 -0.0625 6.035156 0.203125 4.828125 0.203125 C 3.898438 0.203125 3.160156 0.046875 2.609375 -0.265625 C 2.054688 -0.578125 1.65625 -0.972656 1.40625 -1.453125 C 1.164062 -1.941406 1.046875 -2.429688 1.046875 -2.921875 L 1.046875 -3 L 2.34375 -3 C 2.34375 -2.632812 2.410156 -2.289062 2.546875 -1.96875 C 2.691406 -1.65625 2.945312 -1.394531 3.3125 -1.1875 C 3.675781 -0.988281 4.179688 -0.890625 4.828125 -0.890625 Z M 4.828125 -0.890625 "/></g></g><g style="fill:#00abe4;fill-opacity:1;"><g transform="translate(278.363438, 194.942037)"><path style="stroke:none" d="M 1.34375 0 L 1.34375 -9.796875 L 2.640625 -9.796875 L 2.640625 0 Z M 2.828125 -13.765625 L 2.828125 -12.109375 L 1.171875 -12.109375 L 1.171875 -13.765625 Z M 2.828125 -13.765625 "/></g></g><g style="fill:#00abe4;fill-opacity:1;"><g transform="translate(288.027458, 194.942037)"><path style="stroke:none" d="M 7.4375 0.015625 L 7.4375 -1.796875 C 7.164062 -1.421875 6.804688 -1.109375 6.359375 -0.859375 C 5.910156 -0.617188 5.34375 -0.5 4.65625 -0.5 C 3.769531 -0.5 3.046875 -0.703125 2.484375 -1.109375 C 1.929688 -1.523438 1.53125 -2.078125 1.28125 -2.765625 C 1.03125 -3.460938 0.90625 -4.222656 0.90625 -5.046875 L 0.90625 -5.453125 C 0.90625 -6.273438 1.03125 -7.03125 1.28125 -7.71875 C 1.53125 -8.40625 1.929688 -8.957031 2.484375 -9.375 C 3.046875 -9.789062 3.769531 -10 4.65625 -10 C 5.40625 -10 6.015625 -9.847656 6.484375 -9.546875 C 6.953125 -9.253906 7.316406 -8.898438 7.578125 -8.484375 L 7.765625 -9.796875 L 8.828125 -9.796875 L 8.71875 -7.03125 L 8.71875 0.09375 C 8.71875 0.820312 8.59375 1.472656 8.34375 2.046875 C 8.09375 2.628906 7.6875 3.082031 7.125 3.40625 C 6.5625 3.738281 5.8125 3.90625 4.875 3.90625 C 3.9375 3.90625 3.191406 3.738281 2.640625 3.40625 C 2.085938 3.070312 1.691406 2.625 1.453125 2.0625 C 1.210938 1.507812 1.09375 0.898438 1.09375 0.234375 L 1.09375 0 L 2.328125 0 C 2.328125 0.925781 2.519531 1.617188 2.90625 2.078125 C 3.300781 2.535156 3.953125 2.765625 4.859375 2.765625 C 5.804688 2.765625 6.472656 2.53125 6.859375 2.0625 C 7.242188 1.601562 7.4375 0.921875 7.4375 0.015625 Z M 7.4375 -7.3125 C 7.300781 -7.539062 7.125 -7.769531 6.90625 -8 C 6.6875 -8.238281 6.414062 -8.4375 6.09375 -8.59375 C 5.78125 -8.75 5.394531 -8.828125 4.9375 -8.828125 C 4.019531 -8.828125 3.335938 -8.515625 2.890625 -7.890625 C 2.441406 -7.273438 2.21875 -6.460938 2.21875 -5.453125 L 2.21875 -5.046875 C 2.21875 -4.023438 2.441406 -3.203125 2.890625 -2.578125 C 3.335938 -1.960938 4.019531 -1.65625 4.9375 -1.65625 C 5.394531 -1.65625 5.78125 -1.734375 6.09375 -1.890625 C 6.414062 -2.054688 6.6875 -2.253906 6.90625 -2.484375 C 7.125 -2.722656 7.300781 -2.945312 7.4375 -3.15625 Z M 7.4375 -7.3125 "/></g></g><g style="fill:#00abe4;fill-opacity:1;"><g transform="translate(303.619964, 194.942037)"><path style="stroke:none" d="M 8.625 0 L 7.34375 0 L 7.34375 -6.671875 C 7.34375 -7.410156 7.148438 -7.953125 6.765625 -8.296875 C 6.378906 -8.648438 5.863281 -8.828125 5.21875 -8.828125 C 4.707031 -8.828125 4.273438 -8.75 3.921875 -8.59375 C 3.578125 -8.4375 3.289062 -8.238281 3.0625 -8 C 2.832031 -7.769531 2.648438 -7.539062 2.515625 -7.3125 L 2.515625 0 L 1.21875 0 L 1.21875 -7.03125 L 1.109375 -9.796875 L 2.1875 -9.796875 L 2.359375 -8.40625 C 2.648438 -8.84375 3.0625 -9.21875 3.59375 -9.53125 C 4.132812 -9.84375 4.820312 -10 5.65625 -10 C 6.625 -10 7.359375 -9.703125 7.859375 -9.109375 C 8.367188 -8.515625 8.625 -7.765625 8.625 -6.859375 Z M 8.625 0 "/></g></g></g></svg>